<svg width="1024" height="1024" viewBox="0 0 1024 1024" fill="none" xmlns="http://www.w3.org/2000/svg">
<rect width="1024" height="1024" rx="512" fill="#14B8A6"/>
<path d="M241.255 771V252.6H349.255V771H241.255ZM496.855 771V543.48C496.855 523.32 491.575 508.2 481.015 498.12C470.935 488.04 456.055 483 436.375 483C419.575 483 404.455 486.84 391.015 494.52C378.055 502.2 367.735 512.76 360.055 526.2C352.855 539.64 349.255 555.48 349.255 573.72L339.895 485.16C351.895 458.28 369.415 436.92 392.455 421.08C415.975 404.76 444.775 396.6 478.855 396.6C519.655 396.6 550.855 408.12 572.455 431.16C594.055 453.72 604.855 484.2 604.855 522.6V771H496.855ZM663.833 771V652.2H782.633V771H663.833Z" fill="white"/>
</svg>
